<?xml version="1.0" encoding="UTF-8"?>
<svg width="1075px" height="702px" viewBox="0 0 1075 702" version="1.1" xmlns="http://www.w3.org/2000/svg" xmlns:xlink="http://www.w3.org/1999/xlink">
    <!-- Generator: Sketch 51 (57462) - http://www.bohemiancoding.com/sketch -->
    <title>Group 11</title>
    <desc>Created with Sketch.</desc>
    <defs></defs>
    <g id="Page-1" stroke="none" stroke-width="1" fill="none" fill-rule="evenodd">
        <g id="Desktop-HD-Copy-5" transform="translate(-179.000000, -1001.000000)">
            <g id="生态" transform="translate(179.000000, 1001.000000)">
                <g id="Group-11">
                    <g id="Group-4" transform="translate(454.000000, 338.000000)" fill="#6AAFFE" fill-rule="nonzero">
                        <path d="M88.5,-17.2929904 L193.466245,58.8167763 L153.361301,182 L23.6386992,182 L-16.4662448,58.8167763 L88.5,-17.2929904 Z" id="Polygon" stroke="#F5FAFF" stroke-width="28"></path>
                        <path d="M88.5,-11.7345292 L188.173523,60.5375485 L150.093885,177.5 L26.9061147,177.5 L-11.1735232,60.5375485 L88.5,-11.7345292 Z" id="Polygon-Copy-5" stroke="#E8F4FF" stroke-width="19"></path>
                        <path d="M88.5,-7.4112816 L184.056962,61.8759269 L147.552562,174 L29.4474379,174 L-7.05696204,61.8759269 L88.5,-7.4112816 Z" id="Polygon-Copy-4" stroke="#DDEEFF" stroke-width="12"></path>
                        <path d="M88.5,-3.7056408 L180.528481,63.0231084 L145.374285,171 L31.625715,171 L-3.52848102,63.0231084 L88.5,-3.7056408 Z" id="Polygon-Copy-3" stroke="#C9E4FF" stroke-width="6"></path>
                        <path d="M89,4.44110582 L173.292422,65.5743466 L141.092329,164.5 L36.9076707,164.5 L4.70757822,65.5743466 L89,4.44110582 Z" id="Polygon-Copy-2" stroke="#9BC9FE" stroke-width="9"></path>
                        <path d="M89,14.2069153 L164.526712,69.0802832 L135.678075,157.867258 L42.3219252,157.867258 L13.4732885,69.0802832 L89,14.2069153 Z" id="Polygon-Copy" stroke="#2C8BFF" stroke-width="6"></path>
                    </g>
                    <path d="M543.25,357 L543.25,169" id="Line" stroke="#2C8BFF" stroke-width="2" stroke-dasharray="2" fill-rule="nonzero"></path>
                    <path d="M616.5,408.5 L741,365" id="Line-2" stroke="#2C8BFF" stroke-width="2" stroke-dasharray="2" fill-rule="nonzero"></path>
                    <path d="M588,497 L696,629" id="Line-3" stroke="#2C8BFF" stroke-width="2" stroke-dasharray="2" fill-rule="nonzero"></path>
                    <path d="M497.5,491.5 L395,626" id="Line-4" stroke="#2C8BFF" stroke-width="2" stroke-dasharray="2" fill-rule="nonzero"></path>
                    <path d="M471,408 L334,363" id="Line-5" stroke="#2C8BFF" stroke-width="2" stroke-dasharray="2" fill-rule="nonzero"></path>
                    <g id="chaindigg、logo横版-copy" transform="translate(513.000000, 400.000000)" fill="#FFFFFF">
                        <path d="M31.4357651,2.8459584 C32.520203,2.84747 33.6038513,2.90302691 34.6824607,3.01241127 L34.7729259,12.7352171 C24.3448305,11.1308767 14.2598804,17.1249742 10.9546035,26.8918907 C7.64932654,36.6588072 12.0979312,47.3198088 21.46118,52.0707137 C30.8244288,56.8216186 42.3425663,54.2621292 48.66436,46.0257908 L57.4696395,50.5983491 C49.0805511,62.6792897 33.1076466,67.3187641 19.296254,61.6861539 C5.48486143,56.0535436 -2.33032876,41.7127254 0.618857669,27.413265 C3.5680441,13.1138046 16.4627746,2.825903 31.4357651,2.82637571 L31.4357651,2.8459584 Z" id="Shape"></path>
                        <path d="M31.5806268,17.3333293 C33.578354,17.328442 35.558046,17.7187731 37.4100267,18.4826981 L37.546046,0.00362259771 C40.3052953,-0.125185972 47.1062619,3.22383683 47.1062619,3.22383683 L47.1062619,33.13715 C47.1062619,41.8927202 40.1464986,48.9905123 31.5611954,48.9905123 C22.9758923,48.9905123 16.016129,41.8927202 16.016129,33.13715 C16.016129,24.3815797 22.9758923,17.2837876 31.5611954,17.2837876 L31.5806268,17.3333293 Z M31.8235184,27.3903061 C29.5325498,27.3903061 27.4671647,28.7977219 26.590449,30.9562778 C25.7137332,33.1148337 26.198341,35.5994389 27.8183005,37.2515261 C29.4382599,38.9036132 31.8745478,39.3978319 33.9911268,38.5037288 C36.1077058,37.6096257 37.487752,35.503279 37.487752,33.166875 C37.4981604,31.6228123 36.9019804,30.1387705 35.8322833,29.0459971 C34.7625862,27.9532237 33.3084227,27.3426906 31.7943714,27.3506727 L31.8235184,27.3903061 Z" id="Shape"></path>
                        <path d="M51.816888,8.47912713 L51.8914064,19.78463 L58.4117647,15.7967983 C56.6406728,12.9545391 54.4069007,10.4759469 51.816888,8.47912713 Z" id="Shape"></path>
                    </g>
                    <rect id="Rectangle-7" stroke="#2C8BFF" fill-rule="nonzero" x="272.5" y="0.5" width="537" height="169" rx="8"></rect>
                    <path d="M749.601416,406.5 L1066.55645,406.5 C1070.97333,406.5 1074.49996,404.009144 1074.49996,401.036364 L1074.49997,242.97966 C1074.50606,241.568498 1073.70535,240.194299 1072.24699,239.161121 C1070.75078,238.101127 1068.70043,237.499993 1066.55645,237.5 L749.601414,237.5 C747.413919,237.499993 745.321926,238.10208 743.79551,239.163624 C742.309116,240.197335 741.49384,241.570862 741.50004,242.981818 L741.500035,401.034175 C741.513026,404.001899 745.102391,406.490532 749.601416,406.5 Z" id="Combined-Shape" stroke="#2C8BFF"></path>
                    <path d="M384.398584,532.5 L67.4435486,532.5 C65.2995695,532.499993 63.2492201,533.101127 61.7530074,534.161121 C60.2946478,535.194299 59.4939432,536.568498 59.5000393,537.981818 L59.5000393,696.036364 C59.5000393,697.444901 60.3036504,698.815182 61.7615413,699.844887 C63.2571455,700.90123 65.3038147,701.5 67.4435502,701.5 L378,701.5 L384.398584,701.5 C388.903629,701.5 392.49996,699.006537 392.49996,696.036364 L392.499965,537.97962 C392.50616,536.570862 391.690884,535.197335 390.20449,534.163624 C388.678074,533.10208 386.586081,532.499993 384.398584,532.5 Z" id="Combined-Shape" stroke="#2C8BFF"></path>
                    <path d="M1020.39858,547.5 L704.444102,547.5 C702.273902,547.499903 700.199902,548.018227 698.695968,548.92897 C697.250242,549.804462 696.477037,550.950741 696.500629,552.113155 L696.50057,685.987009 C696.537748,688.41877 700.04875,690.50011 704.444112,690.5 L1014.99639,690.492792 L1020.39859,690.453797 C1022.59927,690.453803 1024.70365,689.94078 1026.23618,689.037984 C1027.70909,688.170314 1028.5059,687.033204 1028.49996,685.886845 L1028.49997,552.064356 C1028.5059,550.920592 1027.70909,549.783483 1026.23618,548.915813 C1024.70365,548.013017 1022.59927,547.499994 1020.39858,547.5 Z" id="Combined-Shape" stroke="#2C8BFF"></path>
                    <path d="M8.60141568,393.5 L325.557133,393.5 C327.714275,393.500006 329.776904,392.987719 331.278938,392.086276 C332.72355,391.219294 333.505809,390.081989 333.499961,388.933048 L333.499967,255.064404 C333.505809,253.918011 332.72355,252.780706 331.278938,251.913724 C329.776904,251.012281 327.714275,250.499994 325.557131,250.5 L8.60141568,250.5 C6.40508539,250.5 4.30447423,251.011007 2.77253367,251.910709 C1.29994444,252.775554 0.500040032,253.909705 0.500040032,255.051551 L0.500033295,388.935644 C0.494095739,390.079408 1.29090793,391.216517 2.7638167,392.084187 C4.29635211,392.986983 6.40073447,393.500006 8.60141568,393.5 Z" id="Combined-Shape" stroke="#2C8BFF"></path>
                </g>
            </g>
        </g>
    </g>
</svg>