<?xml version="1.0" encoding="UTF-8"?>
<svg width="489px" height="574px" viewBox="0 0 489 574" version="1.1" xmlns="http://www.w3.org/2000/svg" xmlns:xlink="http://www.w3.org/1999/xlink">
    <!-- Generator: Sketch 51 (57462) - http://www.bohemiancoding.com/sketch -->
    <title>监控系统</title>
    <desc>Created with Sketch.</desc>
    <defs></defs>
    <g id="Page-1" stroke="none" stroke-width="1" fill="none" fill-rule="evenodd">
        <g id="Desktop-HD-Copy-5" transform="translate(-157.000000, -1945.000000)">
            <g id="跟踪监控" transform="translate(0.000000, 1789.000000)">
                <g id="监控系统" transform="translate(153.000000, 156.000000)">
                    <path d="M277.75,153.25 L277.75,147.75 L294.75,155.75 L277.75,163.75 L277.75,158.25 L213.25,158.25 L213.25,153.25 L277.75,153.25 Z" id="Combined-Shape-Copy-9" fill="#5FB98F" fill-rule="nonzero" transform="translate(254.000000, 155.750000) rotate(-90.000000) translate(-254.000000, -155.750000) "></path>
                    <path d="M280.0015,405.535188 L280.0015,400.035188 L297.0015,408.035188 L280.0015,416.035188 L280.0015,410.535188 L210.5015,410.535188 L210.5015,405.535188 L280.0015,405.535188 Z" id="Combined-Shape-Copy-11" fill="#E8716E" fill-rule="nonzero" transform="translate(253.751500, 408.035188) scale(-1, -1) rotate(90.000000) translate(-253.751500, -408.035188) "></path>
                    <path d="M387.879614,359.765003 L387.879614,354.265003 L404.879614,362.265003 L387.879614,370.265003 L387.879614,364.765003 L318.379614,364.765003 L318.379614,359.765003 L387.879614,359.765003 Z" id="Combined-Shape-Copy-3" fill="#5FB98F" fill-rule="nonzero" transform="translate(361.629614, 362.265003) rotate(33.000000) translate(-361.629614, -362.265003) "></path>
                    <path d="M162.879614,368.765003 L162.879614,363.265003 L179.879614,371.265003 L162.879614,379.265003 L162.879614,373.765003 L93.3796143,373.765003 L93.3796143,368.765003 L162.879614,368.765003 Z" id="Combined-Shape-Copy-2" fill="#5FB98F" fill-rule="nonzero" transform="translate(136.629614, 371.265003) scale(-1, 1) rotate(33.000000) translate(-136.629614, -371.265003) "></path>
                    <path d="M393.705599,228.809912 L393.705599,223.309912 L410.705599,231.309912 L393.705599,239.309912 L393.705599,233.809912 L324.205599,233.809912 L324.205599,228.809912 L393.705599,228.809912 Z" id="Combined-Shape-Copy-5" fill="#5FB98F" fill-rule="nonzero" transform="translate(367.455599, 231.309912) rotate(-30.000000) translate(-367.455599, -231.309912) "></path>
                    <path d="M164.5,221.5 L164.5,216 L181.5,224 L164.5,232 L164.5,226.5 L95,226.5 L95,221.5 L164.5,221.5 Z" id="Combined-Shape-Copy-10" fill="#E8716E" fill-rule="nonzero" transform="translate(138.250000, 224.000000) rotate(30.000000) translate(-138.250000, -224.000000) "></path>
                    <polygon id="Star" fill="#4E449C" fill-rule="nonzero" points="251.5 81 216.425971 60.75 216.425971 20.25 251.5 0 286.574029 20.25 286.574029 60.75"></polygon>
                    <polygon id="Star-Copy" fill="#4E449C" fill-rule="nonzero" points="40.5 205 5.42597115 184.75 5.42597115 144.25 40.5 124 75.5740289 144.25 75.5740289 184.75"></polygon>
                    <polygon id="Star-Copy-2" fill="#4E449C" fill-rule="nonzero" points="40.5 468 5.42597115 447.75 5.42597115 407.25 40.5 387 75.5740289 407.25 75.5740289 447.75"></polygon>
                    <polygon id="Star-Copy-3" fill="#4E449C" fill-rule="nonzero" points="250.5 555 215.425971 534.75 215.425971 494.25 250.5 474 285.574029 494.25 285.574029 534.75"></polygon>
                    <polygon id="Star-Copy-4" fill="#4E449C" fill-rule="nonzero" points="456.5 468 421.425971 447.75 421.425971 407.25 456.5 387 491.574029 407.25 491.574029 447.75"></polygon>
                    <polygon id="Star-Copy-5" fill="#4E449C" fill-rule="nonzero" points="456.5 216 421.425971 195.75 421.425971 155.25 456.5 135 491.574029 155.25 491.574029 195.75"></polygon>
                    <polygon id="Star-Copy-6" fill="#4E449C" fill-rule="nonzero" points="252.5 346 196 313.5 196 248.5 252.5 216 309 248.5 309 313.5"></polygon>
                    <g id="比特币-" transform="translate(227.000000, 245.000000)" fill="#ED8E21" fill-rule="nonzero">
                        <path d="M44.2130617,34.629476 C45.9152676,32.2676419 46.9365912,29.2727505 46.9365912,26.0671315 C46.9365912,18.3061719 41.1068771,12.0213387 33.8727027,12.0213387 L31.7875205,12.0213387 L31.7875205,1.13892383 C31.7887425,0.836495154 31.668079,0.546103417 31.4523326,0.332252334 C31.2365861,0.11840125 30.9436206,-0.00120219001 30.6385115,9.11183354e-06 L26.8513642,9.11183354e-06 C26.546255,-0.00120219001 26.2532895,0.11840125 26.0375431,0.332252334 C25.8217966,0.546103417 25.7011331,0.836495154 25.7023551,1.13892383 L25.7023551,12.0213387 L19.6597248,12.0213387 L19.6597248,1.13892383 C19.6609469,0.836495154 19.5402834,0.546103417 19.3245369,0.332252334 C19.1087904,0.11840125 18.8158249,-0.00120219001 18.5107158,9.11183354e-06 L14.7235685,9.11183354e-06 C14.4184594,-0.00120219001 14.1254939,0.11840125 13.9097474,0.332252334 C13.6940009,0.546103417 13.5733374,0.836495154 13.5745595,1.13892383 L13.5745595,12.0213387 L1.14901823,12.0213387 C0.8439091,12.0201274 0.55094359,12.1397308 0.335197122,12.3535819 C0.119450653,12.567433 -0.00121284515,12.8578247 9.19259269e-06,13.1602534 L9.19259269e-06,16.9562115 C9.19259269e-06,17.5465507 0.425520539,18.0528853 1.02125247,18.0951262 C5.2766067,18.4746584 7.57414325,21.3008247 7.57414325,24.8016531 L7.57414325,48.0421318 C7.57414325,51.1633484 5.9574088,53.652144 2.38269617,53.9891966 C1.87187389,54.0311193 1.44660331,54.4109697 1.36145289,54.8749042 L0.638195957,58.713501 C0.510670961,59.3883221 1.02109196,60.0212205 1.74458966,60.0212205 L13.6167735,60.0212205 L13.6167735,70.8610762 C13.6155515,71.1635048 13.736215,71.4538966 13.9519615,71.6677477 C14.1677079,71.8815987 14.4606734,72.0012022 14.7657826,71.9999909 L18.5529299,71.9999909 C18.858039,72.0012022 19.1510045,71.8815987 19.366751,71.6677477 C19.5824974,71.4538966 19.7031609,71.1635048 19.7019389,70.8610762 L19.7019389,59.9786613 L25.7445692,59.9786613 L25.7445692,70.8610762 C25.7433472,71.1635048 25.8640107,71.4538966 26.0797571,71.6677477 C26.2955036,71.8815987 26.5884691,72.0012022 26.8935782,71.9999909 L30.6807255,71.9999909 C30.9858347,72.0012022 31.2788002,71.8815987 31.4945466,71.6677477 C31.7102931,71.4538966 31.8309566,71.1635048 31.8297346,70.8610762 L31.8297346,59.9786613 L36.9361115,59.9786613 C44.12751,59.9786613 50,53.7784691 50,46.1015141 C49.9577057,41.3351277 47.6593666,37.1171578 44.212821,34.6289191 L44.2130617,34.629476 Z M19.7031427,20.9635335 L28.9798037,20.9635335 C32.4267506,20.9635335 35.2349489,23.7470611 35.2349489,27.1637257 C35.2349489,30.5803903 32.4267506,33.363918 28.9798037,33.363918 L19.7031427,33.363918 L19.7031427,20.9632949 L19.7031427,20.9635335 Z M31.9583831,51.3744736 L19.6605274,51.3744736 L19.6605274,39.0160915 L31.9583831,39.0160915 C35.4051695,39.0160915 38.2135283,41.7996191 38.2135283,45.2162837 C38.2135283,48.5905483 35.4476243,51.3743941 31.9583831,51.3743941 L31.9583831,51.3744736 Z" id="Shape"></path>
                    </g>
                    <text id="1NYAd…Dwk28" font-family="PingFangSC-Medium, PingFang SC" font-size="10" font-weight="400" fill="#FFFFFF">
                        <tspan x="420" y="231">1NYAd…Dwk28</tspan>
                    </text>
                    <text id="37k5U…SqVid" font-family="PingFangSC-Medium, PingFang SC" font-size="10" font-weight="400" fill="#FFFFFF">
                        <tspan x="223" y="97">37k5U…SqVid</tspan>
                    </text>
                    <text id="1J37C…DsdCn" font-family="PingFangSC-Medium, PingFang SC" font-size="10" font-weight="400" fill="#FFFFFF">
                        <tspan x="4" y="221">1J37C…DsdCn</tspan>
                    </text>
                    <text id="1NDyj…obu1s" font-family="PingFangSC-Medium, PingFang SC" font-size="10" font-weight="400" fill="#FFFFFF">
                        <tspan x="8" y="487">1NDyj…obu1s</tspan>
                    </text>
                    <text id="3Hhtp…DtvWp" font-family="PingFangSC-Medium, PingFang SC" font-size="10" font-weight="400" fill="#FFFFFF">
                        <tspan x="217" y="572">3Hhtp…DtvWp</tspan>
                    </text>
                    <text id="17e66…XrsaZ" font-family="PingFangSC-Medium, PingFang SC" font-size="10" font-weight="400" fill="#FFFFFF">
                        <tspan x="424" y="484">17e66…XrsaZ</tspan>
                    </text>
                </g>
            </g>
        </g>
    </g>
</svg>