<?xml version="1.0" encoding="UTF-8"?>
<svg width="243px" height="40px" viewBox="0 0 243 40" version="1.1" xmlns="http://www.w3.org/2000/svg" xmlns:xlink="http://www.w3.org/1999/xlink">
    <!-- Generator: Sketch 51 (57462) - http://www.bohemiancoding.com/sketch -->
    <title>chaindigg、logo横版</title>
    <desc>Created with Sketch.</desc>
    <defs></defs>
    <g id="Page-1" stroke="none" stroke-width="1" fill="none" fill-rule="evenodd">
        <g id="Desktop-HD-Copy-5" transform="translate(-48.000000, -25.000000)" fill="#FFFFFF">
            <g id="首栏">
                <g id="Group-9" transform="translate(48.000000, 25.000000)">
                    <g id="chaindigg、logo横版">
                        <path d="M19.1449223,2.01215161 C19.8053636,2.01308961 20.4653241,2.04756424 21.1222157,2.11544033 L21.1773106,8.14871662 C14.826421,7.15317799 8.68451273,10.8726852 6.67154215,16.9333334 C4.65857157,22.9939816 7.3678484,29.609435 13.0702282,32.557506 C18.7726079,35.505577 25.787352,33.9173414 29.6374332,28.8064602 L35,31.6438621 C29.8909007,39.1404278 20.1631269,42.019353 11.751751,38.5241589 C3.34037506,35.0289647 -1.41921034,26.130081 0.376894977,17.256861 C2.17300029,8.38364091 10.0261132,1.99970667 19.1449223,2 L19.1449223,2.01215161 Z" id="Shape"></path>
                        <path d="M19.511875,10.6142977 C20.7327388,10.6113048 21.9425808,10.8503293 23.074375,11.3181291 L23.1575,0.0022183465 C24.84375,-0.0766593156 29,1.9741599 29,1.9741599 L29,20.29198 C29,25.6535714 24.7467051,30 19.5,30 C14.2532949,30 10,25.6535714 10,20.29198 C10,14.9303887 14.2532949,10.5839601 19.5,10.5839601 L19.511875,10.6142977 Z M19.6603125,16.7728228 C18.2602412,16.7728228 16.9980299,17.6346729 16.4622458,18.9564936 C15.9264617,20.2783144 16.2226182,21.7997959 17.2126182,22.8114737 C18.2026181,23.8231515 19.6914979,24.125793 20.9849951,23.5782769 C22.2784924,23.0307608 23.121875,21.7409111 23.121875,20.3101826 C23.1282358,19.364655 22.7638945,18.455882 22.1101744,17.7867075 C21.4564543,17.117533 20.5677767,16.7436648 19.6425,16.7485528 L19.6603125,16.7728228 Z" id="Shape"></path>
                        <path d="M32,5 L32.0451977,12 L36,9.5308642 C34.9257771,7.77102969 33.5709241,6.23636593 32,5 Z" id="Shape"></path>
                        <path d="M59.0778226,22.81875 L64,22.81875 L64,24.8625 C64,27.0375 63.5237655,28.6041667 62.5712964,29.5625 C61.6188274,30.5208333 60.0824817,31 57.9622595,31 L49.9673908,31 C47.5307662,31 45.7595652,30.44375 44.6537877,29.33125 C43.5480103,28.21875 42.9967525,26.325 43.0000144,23.65 L43.0000144,17.54375 C43.0000144,14.73125 43.5382246,12.7729167 44.6146452,11.66875 C45.6910657,10.5645833 47.4850999,10.0083333 49.9967477,10 L55.9170605,10 C58.9538711,10 61.028427,10.4458333 62.1407282,11.3375 C63.2530294,12.2291667 63.8075491,14.0208333 63.8042872,16.7125 L63.8042872,17.7375 L58.9065739,17.7375 L58.9065739,17.1125 C58.9316345,16.5466407 58.7167531,16.007217 58.3438995,15.7 C57.7867371,15.3302261 57.1594638,15.167807 56.5335559,15.23125 L51.2444169,15.23125 C50.0734019,15.23125 49.2579318,15.5291667 48.7980067,16.125 C48.3380816,16.7208333 48.1048571,17.81875 48.0983334,19.41875 L48.0983334,21.40625 C48.0983334,23.15625 48.3005699,24.3125 48.7050431,24.875 C49.1095163,25.4375 49.907046,25.7145833 51.0976323,25.70625 L56.3574144,25.70625 C57.5023344,25.70625 58.2411503,25.525 58.5640764,25.16875 C58.8870026,24.8125 59.0533585,24.00625 59.1071795,22.79375 L59.0778226,22.81875 Z" id="Shape" fill-rule="nonzero"></path>
                        <polygon id="Shape" fill-rule="nonzero" points="69 10 73.8846807 10 73.8846807 17.4680851 84.1153193 17.4680851 84.1153193 10 89 10 89 31 84.1153193 31 84.1153193 23.0085106 73.8846807 23.0085106 73.8846807 31 69 31"></polygon>
                        <path d="M93,31 L101.816327,10 L108.183673,10 L117,31 L111.607347,31 L110.04,27.2787234 L100.00898,27.2787234 L98.4612245,31 L93,31 Z M101.889796,22.7468085 L108.173878,22.7468085 L105.014694,15.0170213 L101.889796,22.7468085 Z" id="Shape" fill-rule="nonzero"></path>
                        <polygon id="Shape" fill-rule="nonzero" points="120 10 124 10 124 31 120 31"></polygon>
                        <polygon id="Shape" fill-rule="nonzero" points="131 10 138.642985 10 148.040661 25.3191489 148.040661 25.3191489 148.040661 10 153 10 153 31 145.34227 31 135.944593 15.6808511 135.944593 15.6808511 135.944593 31 131 31"></polygon>
                        <path d="M159,30.9996404 L159,10 L174.213085,10 C176.808572,10 178.587763,10.5787135 179.550659,11.7361405 C180.513554,12.8935675 180.996668,14.7658758 181,17.3530656 L181,23.6210433 C181,26.1741911 180.513554,28.0464995 179.540663,29.2379684 C178.567772,30.4294374 176.848554,31.0166614 174.383008,30.9996404 L159,30.9996404 Z M164.027715,25.6252643 L172.943662,25.6252643 C174.103135,25.6252643 174.894442,25.3465457 175.317583,24.7891085 C175.740724,24.2316712 175.958958,23.2678579 175.972285,21.8976686 L175.972285,19.0317602 C175.972285,17.5339135 175.739058,16.5232926 175.272603,15.9998973 C174.807815,15.476502 173.973194,15.2084214 172.773739,15.2084214 L164.027715,15.2084214 L164.027715,25.6252643 Z" id="Shape" fill-rule="nonzero"></path>
                        <polygon id="Shape" fill-rule="nonzero" points="186 10 190 10 190 31 186 31"></polygon>
                        <path d="M216.828711,17.3040802 L211.98369,17.3040802 C212.049363,16.628409 211.869036,15.9515518 211.494294,15.4671316 C211.16803,15.1172366 210.548128,14.9422891 209.634589,14.9422891 L204.251232,14.9422891 C202.900499,14.9422891 202.039162,15.2546953 201.662327,15.8795078 C201.285492,16.5043202 201.099522,17.6352308 201.099522,19.3097281 L201.099522,21.4653311 C201.099522,23.4189113 201.305068,24.6685362 201.716161,25.2142058 C202.132147,25.7702889 202.973908,26.0514545 204.23655,26.0701988 L209.482876,26.0701988 C210.188866,26.146714 210.897529,25.9692271 211.528552,25.5578526 C211.923165,25.1728904 212.138598,24.5593322 212.101145,23.9270921 L212.101145,23.3460166 L205.920073,23.3460166 L205.920073,19.0722994 L217,19.0722994 L217,24.9580327 C217,27.3156583 216.53018,28.9130955 215.590539,29.7503442 C214.650899,30.5875929 212.742254,31.0041345 209.864605,30.9999691 L202.969015,30.9999691 C200.531822,30.9999691 198.760208,30.443886 197.654173,29.3317198 C196.548138,28.2195537 195.996752,26.3263719 196.000014,23.6521747 L196.000014,17.547757 C196.000014,14.8027477 196.535087,12.8574982 197.605234,11.7120087 C198.67538,10.5665193 200.469832,9.99585722 202.98859,10.0000226 L210.407835,10.0000226 C212.730835,10.0000226 214.383362,10.4644666 215.365417,11.3933544 C216.347472,12.3222422 216.836868,14.0071531 216.833605,16.4480871 L216.833605,17.2915839 L216.828711,17.3040802 Z" id="Shape" fill-rule="nonzero"></path>
                        <path d="M242.843284,17.3040802 L237.994873,17.3040802 C238.060592,16.628409 237.880138,15.9515518 237.505134,15.4671316 C237.178642,15.1172366 236.558307,14.9422891 235.644128,14.9422891 L230.257005,14.9422891 C228.905327,14.9422891 228.043387,15.2546953 227.666289,15.8795078 C227.28919,16.5043202 227.103089,17.6352308 227.103089,19.3097281 L227.103089,21.4653311 C227.103089,23.4189113 227.308779,24.6685362 227.72016,25.2142058 C228.136437,25.7702889 228.978788,26.0514545 230.242313,26.0701988 L235.492309,26.0701988 C236.198793,26.146714 236.907952,25.9692271 237.539416,25.5578526 C237.934306,25.1728904 238.149889,24.5593322 238.11241,23.9270921 L238.11241,23.3460166 L231.931911,23.3460166 L231.931911,19.0722994 L243,19.0722994 L243,24.9580327 C243,27.3156583 242.529851,28.9130955 241.589553,29.7503442 C240.649255,30.5875929 238.739275,31.0041345 235.859613,30.9999691 L228.97389,30.9999691 C226.534993,30.9999691 224.762139,30.443886 223.65533,29.3317198 C222.548521,28.2195537 221.996749,26.3263719 222.000014,23.6521747 L222.000014,17.547757 C222.000014,14.8027477 222.535462,12.8574982 223.606357,11.7120087 C224.677251,10.5665193 226.472959,9.99585722 228.99348,10.0000226 L236.432607,10.0000226 C238.757232,10.0000226 240.410916,10.4644666 241.393658,11.3933544 C242.3764,12.3222422 242.866138,14.0071531 242.862873,16.4480871 L242.862873,17.2915839 L242.843284,17.3040802 Z" id="Shape" fill-rule="nonzero"></path>
                    </g>
                </g>
            </g>
        </g>
    </g>
</svg>