<?xml version="1.0" encoding="UTF-8"?>
<svg width="20px" height="20px" viewBox="0 0 20 20" version="1.1" xmlns="http://www.w3.org/2000/svg" xmlns:xlink="http://www.w3.org/1999/xlink">
    <!-- Generator: Sketch 51 (57462) - http://www.bohemiancoding.com/sketch -->
    <title>qq</title>
    <desc>Created with Sketch.</desc>
    <defs></defs>
    <g id="Page-1" stroke="none" stroke-width="1" fill="none" fill-rule="evenodd">
        <g id="Desktop-HD-Copy-5" transform="translate(-177.000000, -6880.000000)" fill="#FFFFFF" fill-rule="nonzero">
            <g id="底栏" transform="translate(0.000000, 6714.000000)">
                <g id="qq" transform="translate(177.000000, 166.000000)">
                    <polygon id="Shape" points="2.86510693 8.98970573 2.82672272 8.87405334 2.79596767 8.72235447 2.7745504 8.63885585 2.7745504 8.29781561 2.81142467 8.16413997 2.8497294 8.02131648 2.89880238 7.87265391 2.96555752 7.70733056 3.05372994 7.53457212 3.17790246 7.36185262 3.17790246 7.2401276 3.1901409 7.12743367 3.20861777 6.97265956 3.26233977 6.80138035 3.31141275 6.61351821 3.35039298 6.52795646 3.39573085 6.44757202 3.45390319 6.35819542 3.51680402 6.29287576 3.51680402 5.86545629 3.55355908 5.64532359 3.59039362 5.38992294 3.65635406 5.08418957 3.74683112 4.76650557 3.81430149 4.59148937 3.8810169 4.40062984 3.9538118 4.22335587 4.04134845 4.03261312 4.13023611 3.8252485 4.23295161 3.62921167 4.34802476 3.42106851 4.49373376 3.21296428 4.56040943 3.09435343 4.63248909 2.99590682 4.78817162 2.77651373 4.947629 2.5571985 5.13017253 2.33107102 5.3249545 2.11097725 5.5365842 1.89462047 5.75743247 1.67149038 6.02425437 1.43107666 6.19459919 1.28533363 6.4008249 1.12834067 6.61011023 0.988631343 6.83699824 0.854955711 7.05490611 0.736189155 7.30023126 0.638560009 7.56097367 0.516134306 7.82024588 0.432791403 8.07935915 0.347112875 8.35845923 0.261395419 8.6375593 0.195336145 8.93195744 0.142044957 9.22953438 0.0947096136 9.81682071 0.0165440139 10.1297752 0 11.0546121 0 11.362838 0.0375257162 11.6725342 0.0735722029 11.988588 0.106621304 12.2814365 0.175016203 12.5912122 0.24037479 12.8819149 0.313908066 13.2001939 0.397328823 13.4914927 0.498694969 13.7706325 0.614425212 14.0682095 0.736072373 14.3403956 0.86982586 14.6041182 1.01786559 14.8625957 1.18159294 15.0864241 1.3325522 15.1892588 1.41897034 15.2982127 1.48133154 15.5050742 1.65405105 15.6800283 1.82007509 15.8532738 1.99209391 16.0234994 2.18287558 16.1629302 2.36622218 16.3287055 2.55704279 16.4452489 2.76133216 16.5625472 2.94308275 16.6875144 3.15344476 16.7902299 3.33827059 16.9650648 3.72742472 17.0508929 3.92871671 17.1176083 4.11572246 17.1843634 4.31775406 17.2441649 4.50783505 17.2870789 4.67090064 17.3408406 4.86464077 17.4358078 5.20871733 17.4964437 5.50919555 17.5355034 5.79990307 17.5692386 6.03420524 17.6230003 6.39101096 17.6352388 6.44737738 17.6781925 6.51273597 17.7932657 6.69678326 17.8668155 6.82076605 17.932776 6.95222283 18.0171338 7.09115362 18.0907234 7.25791728 18.1382467 7.43071464 18.1903396 7.61705863 18.230194 7.81005915 18.2486709 7.90550838 18.2640484 8.02112184 18.2640484 8.12190408 18.2486311 8.22327023 18.2486311 8.34869331 18.2178761 8.46963979 18.1626839 8.70479835 18.0997433 8.82348705 18.0538889 8.95716268 18.0538889 8.98943324 18.0752664 9.03085167 18.1381673 9.12925935 18.4112276 9.52433041 18.6273871 9.8210327 18.7300231 10.0201837 18.8696526 10.2372801 18.9909245 10.4746186 19.1304348 10.7299414 19.2700246 11.0155105 19.427217 11.3386054 19.5154292 11.5375228 19.5966479 11.7305622 19.6672177 11.935708 19.7362774 12.1198721 19.78841 12.3128726 19.8420526 12.4939225 19.9097216 12.8476919 19.9632449 13.2097917 20 13.5306288 20 13.9820663 19.9754834 14.142913 19.9402383 14.4185168 19.8911653 14.6679616 19.8160657 14.8931938 19.7884498 14.9857235 19.7363172 15.0961986 19.6918535 15.1727682 19.6335619 15.2682174 19.5814294 15.3276201 19.5155087 15.4049293 19.4571376 15.4671738 19.394356 15.5205817 19.3191373 15.5529691 19.2515477 15.5859014 19.1963555 15.6039636 19.1120771 15.6039636 19.0576399 15.5859014 18.9541694 15.5356076 18.9066064 15.503337 18.8575731 15.4672127 18.8032551 15.4191767 18.7487781 15.3665862 18.6583011 15.2682174 18.5508571 15.1292866 18.4666185 14.9857624 18.3821017 14.8708886 18.3000882 14.7371351 18.1843396 14.4991348 18.0540478 14.2519089 18.0386703 14.2435396 18.0172133 14.2435396 17.9634913 14.281727 17.9328157 14.3471246 17.8822725 14.4275869 17.7933054 14.6680006 17.6598746 15.0098583 17.4880198 15.4191377 17.3591983 15.6249063 17.2234231 15.8383436 17.0632505 16.0786794 16.8929454 16.3139159 16.8056074 16.4204982 16.6997131 16.5362285 16.4566926 16.7713481 16.4780304 16.7915902 16.5110901 16.8246782 16.6323619 16.8959148 17.1383898 17.133409 17.3592778 17.2550951 17.5693578 17.3738227 17.7779676 17.5225242 17.9635708 17.6771815 18.0541273 17.7449147 18.1216374 17.825377 18.190578 17.9178288 18.2488695 18.0183775 18.2795054 18.1017204 18.3179293 18.2031644 18.3333068 18.2887261 18.3516645 18.3895084 18.3333068 18.4579033 18.3333068 18.5261035 18.3179293 18.5976515 18.2795054 18.6628155 18.2642868 18.7138878 18.2304324 18.7755873 18.1384851 18.8973512 18.0542068 18.9958367 17.9882463 19.0700707 17.9329747 19.1234398 17.7934644 19.2241831 17.6354374 19.3104066 17.4667218 19.3937105 17.2872776 19.474095 17.084787 19.5508203 16.9773827 19.5839083 16.8809056 19.610223 16.6477395 19.6633974 16.4054739 19.7145476 16.1630494 19.7648804 15.8992872 19.8062988 15.626346 19.8182883 15.347246 19.8512596 14.4806609 19.8512596 14.1677859 19.8331196 13.8763679 19.8062599 13.5635326 19.7648804 13.252247 19.732532 12.9240342 19.6876101 12.6066692 19.610262 12.2967346 19.5508203 11.9885483 19.4652585 11.6724945 19.3546667 11.3627983 19.2623316 11.2002416 19.2098968 11.0545723 19.1585909 10.9624661 19.1234008 10.8720685 19.1061172 10.6143063 19.1061172 10.316928 19.0849798 10.1657753 19.0700318 9.97174827 19.0489333 9.84745655 19.1585909 9.6773104 19.2623316 9.44724357 19.3728067 9.19273958 19.5094797 9.03777229 19.5839083 8.87680497 19.6425714 8.51942654 19.7850835 8.32539954 19.8331196 8.12215397 19.8866054 7.83987507 19.9398966 7.6636097 19.9549224 7.4765761 19.9699483 7.28175439 19.9909689 7.0547869 20 6.12776458 20 5.60393537 19.9909689 5.09623867 19.9398966 4.8387148 19.9045508 4.34786582 19.8330806 4.10552081 19.7850446 3.88085796 19.7145087 3.65619512 19.6633585 3.45374425 19.5838305 3.26214109 19.5094019 3.08420685 19.4259811 2.92935875 19.3343467 2.77439146 19.2240274 2.72225887 19.1706194 2.65327855 19.1060004 2.60110623 19.0488165 2.55358292 18.9836526 2.5105497 18.9180604 2.47689398 18.8528965 2.4284965 18.71381 2.4108938 18.6417949 2.38943679 18.56215 2.38943679 18.4876825 2.4108938 18.4044174 2.4108938 18.3209578 2.4284965 18.2375759 2.4284965 18.071474 2.4369601 17.9821364 2.47689398 17.8814709 2.51050996 17.7808054 2.57186112 17.6591972 2.61632481 17.6110833 2.65315935 17.5577532 2.74975563 17.4421008 2.82640484 17.3826591 2.8984845 17.3406179 2.96523964 17.2880274 3.07176973 17.2549394 3.15608783 17.2046066 3.26198215 17.1513544 3.38313479 17.1151132 3.50428743 17.0792614 3.64391694 17.0499493 3.77722855 17.0326657 3.93525546 17.0115672 4.10548107 16.9996166 4.15073947 16.984435 4.1599183 16.984435 4.18141505 16.9666453 4.18141505 16.9462086 4.15069974 16.904907 4.05950744 16.8627489 3.83253995 16.6697484 3.680672 16.5510208 3.50432716 16.4001783 3.32639292 16.2302226 3.14082951 16.0140605 2.92927928 15.7706883 2.84945126 15.6392704 2.74359667 15.5032202 2.65315935 15.3455266 2.57186112 15.1726903 2.46135751 15.0097804 2.38935732 14.8227358 2.30432398 14.6356911 2.21909197 14.4275869 2.15627061 14.2292533 2.09797907 13.9821052 2.07958167 13.973152 2.06193924 13.973152 2.0527604 13.9558294 2.03130339 13.9558294 1.99526356 13.973152 1.97686616 13.9821052 1.95227007 14.0234458 1.94309124 14.0745181 1.92473358 14.1188172 1.89254806 14.1932458 1.78816368 14.3742957 1.73452115 14.484654 1.64940834 14.5794414 1.55817631 14.694977 1.45848068 14.8228136 1.35270557 14.9355465 1.22849332 15.0450873 1.11270493 15.1488669 0.986148308 15.2299131 0.846598269 15.3155917 0.713167452 15.3665862 0.555140543 15.4049293 0.400252716 15.4191377 0.363457916 15.4191377 0.328093584 15.4049293 0.300557088 15.3455655 0.254503985 15.3155527 0.194742238 15.1727292 0.157947438 15.0961596 0.118053293 14.9856846 0.085073073 14.8708107 0.0674306422 14.7573382 0.0183973997 14.499057 -9.09494702e-13 14.3471246 -9.09494702e-13 13.8484296 0.0183973997 13.4772598 0.0490729777 13.2873345 0.0851128082 13.0911419 0.118093028 12.8801182 0.176344838 12.6848599 0.242305278 12.4579539 0.30973592 12.2385219 0.400292451 12.013134 0.485444995 11.7962322 0.602703583 11.5760995 0.713167452 11.3387611 0.846558534 11.1164095 1.00367153 10.875879 1.16400308 10.6587437 1.33116909 10.4184857 1.4707986 10.2524227 1.64944808 10.0586047 1.83731613 9.86634383 1.92477331 9.77393092 2.03134313 9.66952846 2.18543625 9.53881128 2.34342343 9.40513565 2.60106649 9.17974779 2.795769 9.04003846"></polygon>
                </g>
            </g>
        </g>
    </g>
</svg>