<?xml version="1.0" encoding="UTF-8"?>
<svg width="23px" height="18px" viewBox="0 0 23 18" version="1.1" xmlns="http://www.w3.org/2000/svg" xmlns:xlink="http://www.w3.org/1999/xlink">
    <!-- Generator: Sketch 51 (57462) - http://www.bohemiancoding.com/sketch -->
    <title>Twitter</title>
    <desc>Created with Sketch.</desc>
    <defs></defs>
    <g id="Page-1" stroke="none" stroke-width="1" fill="none" fill-rule="evenodd">
        <g id="Desktop-HD-Copy-5" transform="translate(-114.000000, -6883.000000)" fill="#FFFFFF" fill-rule="nonzero">
            <g id="底栏" transform="translate(0.000000, 6714.000000)">
                <g id="Twitter" transform="translate(114.000000, 169.000000)">
                    <path d="M22.320197,0.339597139 C21.4137931,0.905592387 20.3940887,1.24518953 19.3743842,1.47158758 C18.5812808,0.565995195 17.3349754,0 15.9753694,0 C13.3694581,0 11.3300492,2.03758283 11.3300492,4.52796183 C11.3300492,4.86755897 11.3300492,5.20715611 11.4433497,5.54675324 C7.59113298,5.32035513 4.19211821,3.50917041 1.81280786,0.792393305 C1.35960591,1.47158758 1.13300491,2.26398089 1.13300491,3.05637425 C1.13300491,4.64116091 1.92610834,5.99954946 3.17241377,6.9051418 C2.37931034,6.9051418 1.69950739,6.67874369 1.01970443,6.33914655 C1.01970443,6.33914655 1.01970443,6.33914655 1.01970443,6.45234558 C1.01970443,8.71632652 2.60591135,10.5275112 4.75862069,10.9803074 C4.41871921,11.0935064 3.96551726,11.0935064 3.51231525,11.0935064 C3.17241377,11.0935064 2.94581277,11.0935064 2.60591129,10.9803074 C3.17241377,12.7914921 4.87192116,14.1498807 6.91133003,14.1498807 C5.32512311,15.3950702 3.28571425,16.0742645 1.13300491,16.0742645 C0.79310343,16.0742645 0.339901478,16.0742645 0,15.9610655 C2.03940887,17.206255 4.53201968,17.9986483 7.13793103,17.9986483 C15.9753694,18.1118474 20.7339901,11.0935065 20.7339901,5.09395708 C20.7339901,4.86755897 20.7339901,4.75435994 20.7339901,4.52796183 C21.6403941,3.84876755 22.4334975,3.05637425 23,2.15078186 C22.2068966,2.490379 21.3004926,2.71677711 20.2807882,2.82997614 C21.3004926,2.26398094 21.9802956,1.35838855 22.320197,0.339597139 Z" id="Shape"></path>
                </g>
            </g>
        </g>
    </g>
</svg>