<?xml version="1.0" encoding="UTF-8"?>
<svg width="25px" height="20px" viewBox="0 0 25 20" version="1.1" xmlns="http://www.w3.org/2000/svg" xmlns:xlink="http://www.w3.org/1999/xlink">
    <!-- Generator: Sketch 51 (57462) - http://www.bohemiancoding.com/sketch -->
    <title>微博</title>
    <desc>Created with Sketch.</desc>
    <defs></defs>
    <g id="Page-1" stroke="none" stroke-width="1" fill="none" fill-rule="evenodd">
        <g id="Desktop-HD-Copy-5" transform="translate(-237.000000, -6880.000000)" fill="#FFFFFF" fill-rule="nonzero">
            <g id="底栏" transform="translate(0.000000, 6714.000000)">
                <g id="微博" transform="translate(237.000000, 166.000000)">
                    <path d="M18.5154924,9.73602661 C17.5432959,9.54596537 18.0150125,9.02329697 18.0150125,9.02329697 C18.0150125,9.02329697 18.9670748,7.45241205 17.8266135,6.31060476 C16.4143398,4.89666435 12.9814505,6.490587 12.9814505,6.490587 C11.6698481,6.89806677 12.0178829,6.30484533 12.2034056,5.29550498 C12.2034056,4.10618238 11.7964062,2.09182124 8.30455232,3.28114383 C4.81557476,4.47622585 1.81988627,8.66621222 1.81988627,8.66621222 C-0.264008408,11.4494575 0.0121184236,13.6006051 0.0121184236,13.6006051 C0.532732553,18.3492563 5.57348538,19.6537675 9.49247296,19.9618971 C13.6171175,20.2858651 19.1827989,18.5378777 20.8711995,14.9497519 C22.5581618,11.352987 19.4905653,9.93040742 18.5154924,9.73602661 M9.797363,18.6228293 C5.70291983,18.8143304 2.39371234,16.7596532 2.39371234,14.0224834 C2.39371234,11.2838738 5.70291983,9.08809057 9.797363,8.89946919 C13.8946825,8.70940796 17.2110808,10.3998011 17.2110808,13.1326513 C17.2096426,15.8683812 13.8946825,18.4356478 9.797363,18.6228293 M8.98048779,10.7036111 C4.86159589,11.1859635 5.33762705,15.0476622 5.33762705,15.0476622 C5.33762705,15.0476622 5.29592039,16.2701016 6.44213437,16.89356 C8.8524915,18.1995111 11.3333185,17.4090291 12.5873945,15.7877492 C13.8400324,14.1664692 13.1036942,10.2241384 8.98048779,10.7036111 M7.94213585,16.1232361 C7.17271994,16.2125073 6.55287273,15.769031 6.55287273,15.1254146 C6.55287273,14.4846778 7.10368824,13.8122642 7.87310415,13.733072 C8.75613474,13.6495603 9.33139897,14.1578301 9.33139897,14.8014466 C9.32996081,15.4436232 8.70723728,16.0368446 7.94213585,16.1232361 M10.3697509,14.0527205 C10.1094438,14.2471013 9.78873404,14.2211838 9.65210878,13.986487 C9.50829272,13.7589895 9.56294283,13.3932656 9.82612621,13.2017645 C10.1310163,12.9742669 10.4488497,13.0390605 10.585475,13.2679979 C10.7221003,13.5012549 10.6228672,13.8511404 10.3697509,14.0527205 M20.5202883,8.06291178 C20.8525034,8.06291178 21.1343828,7.81669608 21.1818421,7.49704764 C21.1875948,7.47257006 21.1904711,7.45241205 21.1904711,7.42505475 C21.6938273,2.89814164 17.4843313,3.67710474 17.4843313,3.67710474 C17.1104095,3.67710474 16.8112721,3.97947489 16.8112721,4.35671765 C16.8112721,4.72820098 17.1104095,5.03057113 17.4843313,5.03057113 C20.5073448,4.36247708 19.8400383,7.3890583 19.8400383,7.3890583 C19.8414765,7.76342134 20.1463665,8.06291178 20.5202883,8.06291178 M20.0298755,0.160971855 C18.5758952,-0.180274457 17.07877,0.114896404 16.6588271,0.194088586 C16.6271876,0.196968302 16.5955481,0.227205317 16.5667848,0.232964748 C16.5524032,0.235844464 16.5423361,0.2516829 16.5423361,0.2516829 C16.129584,0.368311387 15.8261321,0.751313577 15.8261321,1.2048688 C15.8261321,1.7448155 16.263333,2.18829172 16.8083958,2.18829172 C16.8083958,2.18829172 17.3376389,2.11773868 17.6971791,1.97663261 C18.0524047,1.83264683 21.0667893,1.86864327 22.5639145,4.38551481 C23.3807897,6.22277344 22.9234546,7.45097219 22.8659282,7.64967257 C22.8659282,7.64967257 22.6717765,8.12626552 22.6717765,8.59709904 C22.6717765,9.13992545 23.1089773,9.48117177 23.6497257,9.48117177 C24.1027463,9.48117177 24.4824207,9.41925788 24.593159,8.6532535 L24.5989117,8.6532535 C26.2067752,3.28834312 22.6329462,0.768591871 20.0298755,0.160971855" id="Shape"></path>
                </g>
            </g>
        </g>
    </g>
</svg>