<?xml version="1.0" encoding="UTF-8"?>
<svg width="26px" height="21px" viewBox="0 0 26 21" version="1.1" xmlns="http://www.w3.org/2000/svg" xmlns:xlink="http://www.w3.org/1999/xlink">
    <!-- Generator: Sketch 51 (57462) - http://www.bohemiancoding.com/sketch -->
    <title>微信 (1)</title>
    <desc>Created with Sketch.</desc>
    <defs></defs>
    <g id="Page-1" stroke="none" stroke-width="1" fill="none" fill-rule="evenodd">
        <g id="Desktop-HD-Copy-5" transform="translate(-48.000000, -6880.000000)" fill="#FFFFFF" fill-rule="nonzero">
            <g id="底栏" transform="translate(0.000000, 6714.000000)">
                <g id="微信-(1)" transform="translate(48.000000, 166.000000)">
                    <path d="M17.6014709,6.3518284 C17.8999663,6.3518284 18.1960215,6.37438127 18.4860197,6.40717364 C17.6888407,2.72881016 13.7240367,0 9.20298529,0 C4.14433704,0 0,3.41904874 0,7.76151199 C0,10.2638862 1.38026914,12.3225911 3.68264955,13.9205609 L2.76289136,16.6644495 L5.97962654,15.0637578 C7.12933518,15.2893297 8.05149006,15.5218142 9.20302886,15.5218142 C9.49058676,15.5218142 9.77696808,15.5085504 10.059689,15.4857383 C9.88133258,14.8752124 9.77696808,14.2372515 9.77696808,13.5749663 C9.77688091,9.58773237 13.2283599,6.3518284 17.6014709,6.3518284 Z M12.6550307,3.87896305 C13.3454485,3.87896305 13.8059595,4.32950187 13.8059595,5.01675937 C13.8059595,5.70099252 13.3454921,6.15904899 12.6550307,6.15904899 C11.9640029,6.15904899 11.2717549,5.70099256 11.2717549,5.01675937 C11.2717985,4.32950187 11.9640029,3.87896305 12.6550307,3.87896305 Z M6.21315022,6.15904895 C5.52273243,6.15904895 4.82499384,5.70099252 4.82499384,5.01675933 C4.82499384,4.32954506 5.52268886,3.87896301 6.21315022,3.87896301 C6.90234791,3.87896301 7.35919847,4.32950183 7.35919847,5.01675933 C7.35919847,5.70099252 6.90234791,6.15904895 6.21315022,6.15904895 Z M26,13.464924 C26,9.81602611 22.3197471,6.84297967 18.1857376,6.84297967 C13.8060031,6.84297967 10.3557006,9.81602607 10.3557006,13.464924 C10.3557006,17.1201297 13.8059595,20.0850537 18.1857376,20.0850537 C19.1018354,20.0850537 20.0240338,19.8576672 20.9450121,19.6285094 L23.4707195,21 L22.7766413,18.7196117 C24.6258315,17.3456583 26,15.5218575 26,13.464924 Z M15.6460424,12.3225912 C15.1874052,12.3225912 14.7251077,11.8702377 14.7251077,11.4103667 C14.7251077,10.9546865 15.1874052,10.4980126 15.6460424,10.4980126 C16.3419508,10.4980126 16.7975812,10.9547297 16.7975812,11.4103667 C16.7975812,11.8702809 16.3419508,12.3225912 15.6460424,12.3225912 Z M20.7077409,12.3225912 C20.2527206,12.3225912 19.7940398,11.8702377 19.7940398,11.4103667 C19.7940398,10.9546865 20.252677,10.4980126 20.7077409,10.4980126 C21.3987688,10.4980126 21.8610664,10.9547297 21.8610664,11.4103667 C21.8611099,11.8702809 21.3987688,12.3225912 20.7077409,12.3225912 Z" id="Shape"></path>
                </g>
            </g>
        </g>
    </g>
</svg>